<svg width="520" height="835" viewBox="0 0 520 835" fill="none" xmlns="http://www.w3.org/2000/svg">
<path fill-rule="evenodd" clip-rule="evenodd" d="M417.5 116.453V153.827C256.453 153.827 145.422 239.15 145.422 429.693C145.422 620.236 254.184 706.276 417.5 705.559V742.933C186.972 742.933 0 602.669 0 429.783C0 256.896 186.972 116.453 417.5 116.453ZM417.5 116.453C648.028 116.453 835 256.716 835 429.693C835 602.669 648.028 742.843 417.5 742.843V705.47C580.816 704.753 690.363 624.628 689.578 429.603C688.792 234.579 578.547 153.827 417.5 153.737V116.363V116.453Z" fill="#181818" fill-opacity="0.4"/>
<path d="M603.553 812.354V835H255.828V812.354H284.6C318.112 812.354 342.4 802.212 357.463 782.102C367.025 769.074 371.934 737.336 371.934 687.323V147.764C371.934 105.534 369.31 77.5545 364.148 64.0895C360.086 53.7723 351.878 44.9414 339.607 37.5969C322.089 27.7167 303.641 22.9079 284.516 22.9079H255.743V0H603.469V22.9079H574.104C541.015 22.9079 516.982 32.9628 501.834 52.9853C491.848 66.188 486.686 97.7518 486.686 147.764V687.323C486.686 729.554 489.309 757.533 494.471 770.91C498.533 781.228 506.911 790.059 519.52 797.403C536.699 807.283 554.809 812.354 574.019 812.354H603.384H603.553Z" fill="#181818" fill-opacity="0.4"/>
</svg>
