<svg width="109" height="20" viewBox="0 0 109 20" fill="none" xmlns="http://www.w3.org/2000/svg">
<path d="M8.97326 4.7263C10.8718 4.7263 12.3763 5.25145 13.4868 6.30174C14.5972 7.33422 15.1525 8.73164 15.1525 10.494C15.1525 11.0636 15.1077 11.571 15.0181 12.016C14.9107 12.5501 14.7942 13.0129 14.6689 13.4045H3.78811C3.7702 13.5291 3.76125 13.7072 3.76125 13.9386C3.76125 14.8643 4.02991 15.5941 4.56723 16.1282C5.12246 16.6444 5.84785 16.9025 6.74338 16.9025C7.49563 16.9025 8.14042 16.7423 8.67774 16.4219C9.23297 16.0837 9.68074 15.6475 10.021 15.1135H14.0778C13.4151 16.5376 12.3853 17.7125 10.9882 18.6382C9.60909 19.5461 8.04191 20 6.28666 20C4.38812 20 2.86571 19.466 1.71943 18.3979C0.573143 17.3298 0 15.8789 0 14.0454C0 13.5113 0.0537321 12.9506 0.161196 12.3632C0.429857 10.8322 0.976134 9.48821 1.80003 8.33111C2.64183 7.17401 3.68065 6.28393 4.91649 5.66088C6.15233 5.03783 7.50459 4.7263 8.97326 4.7263ZM11.2837 11.1348C11.3196 10.85 11.3375 10.6453 11.3375 10.5207C11.3375 9.66622 11.0599 8.99866 10.5046 8.51802C9.9494 8.03738 9.22401 7.79706 8.32848 7.79706C7.37921 7.79706 6.52845 8.09969 5.7762 8.70494C5.02395 9.29239 4.49559 10.1024 4.1911 11.1348H11.2837Z" fill="white"/>
<path d="M23.674 0L20.1546 19.7597H16.3665L19.8859 0H23.674Z" fill="white"/>
<path d="M33.032 4.7263C34.9306 4.7263 36.4351 5.25145 37.5455 6.30174C38.656 7.33422 39.2112 8.73164 39.2112 10.494C39.2112 11.0636 39.1664 11.571 39.0769 12.016C38.9694 12.5501 38.853 13.0129 38.7276 13.4045H27.8469C27.829 13.5291 27.82 13.7072 27.82 13.9386C27.82 14.8643 28.0887 15.5941 28.626 16.1282C29.1812 16.6444 29.9066 16.9025 30.8021 16.9025C31.5544 16.9025 32.1992 16.7423 32.7365 16.4219C33.2917 16.0837 33.7395 15.6475 34.0798 15.1135H38.1366C37.4739 16.5376 36.444 17.7125 35.047 18.6382C33.6679 19.5461 32.1007 20 30.3454 20C28.4469 20 26.9245 19.466 25.7782 18.3979C24.6319 17.3298 24.0588 15.8789 24.0588 14.0454C24.0588 13.5113 24.1125 12.9506 24.22 12.3632C24.4886 10.8322 25.0349 9.48821 25.8588 8.33111C26.7006 7.17401 27.7394 6.28393 28.9753 5.66088C30.2111 5.03783 31.5633 4.7263 33.032 4.7263ZM35.3425 11.1348C35.3783 10.85 35.3962 10.6453 35.3962 10.5207C35.3962 9.66622 35.1186 8.99866 34.5634 8.51802C34.0082 8.03738 33.2828 7.79706 32.3872 7.79706C31.438 7.79706 30.5872 8.09969 29.835 8.70494C29.0827 9.29239 28.5544 10.1024 28.2499 11.1348H35.3425Z" fill="white"/>
<path d="M47.2492 16.3151L53.0254 4.96662H57.0822L48.9418 19.7597H44.3208L41.473 4.96662H45.5029L47.2492 16.3151Z" fill="white"/>
<path d="M88.4288 15.1936C88.4109 15.3004 88.4019 15.4428 88.4019 15.6208C88.4019 15.9769 88.5004 16.235 88.6974 16.3952C88.9124 16.5376 89.2616 16.6088 89.7452 16.6088H91.5184L90.9542 19.7597H88.5631C85.8765 19.7597 84.5332 18.6471 84.5332 16.4219C84.5332 15.9947 84.569 15.5763 84.6407 15.1669L85.9034 8.03738H84.1302L84.6675 4.96662H86.4676L87.1124 1.30841H90.9005L90.2557 4.96662H93.5602L93.0229 8.03738H89.6915L88.4288 15.1936Z" fill="white"/>
<path d="M102.821 4.7263C104.719 4.7263 106.224 5.25145 107.334 6.30174C108.445 7.33422 109 8.73164 109 10.494C109 11.0636 108.955 11.571 108.866 12.016C108.758 12.5501 108.642 13.0129 108.516 13.4045H97.6357C97.6177 13.5291 97.6088 13.7072 97.6088 13.9386C97.6088 14.8643 97.8775 15.5941 98.4148 16.1282C98.97 16.6444 99.6954 16.9025 100.591 16.9025C101.343 16.9025 101.988 16.7423 102.525 16.4219C103.081 16.0837 103.528 15.6475 103.869 15.1135H107.925C107.263 16.5376 106.233 17.7125 104.836 18.6382C103.457 19.5461 101.889 20 100.134 20C98.2357 20 96.7133 19.466 95.567 18.3979C94.4207 17.3298 93.8475 15.8789 93.8475 14.0454C93.8475 13.5113 93.9013 12.9506 94.0087 12.3632C94.2774 10.8322 94.8237 9.48821 95.6476 8.33111C96.4894 7.17401 97.5282 6.28393 98.764 5.66088C99.9999 5.03783 101.352 4.7263 102.821 4.7263ZM105.131 11.1348C105.167 10.85 105.185 10.6453 105.185 10.5207C105.185 9.66622 104.907 8.99866 104.352 8.51802C103.797 8.03738 103.072 7.79706 102.176 7.79706C101.227 7.79706 100.376 8.09969 99.6237 8.70494C98.8715 9.29239 98.3431 10.1024 98.0386 11.1348H105.131Z" fill="white"/>
<path d="M67.9654 16.4054H60.6576L58.8503 20H55L64.8223 1.10811H69.0917L72.4182 20H68.5416L67.9654 16.4054ZM67.4939 13.4595L66.1843 5.45946L62.1506 13.4595H67.4939Z" fill="#F46F22"/>
<path d="M82 0L78.5688 20H74.8756L78.3068 0H82Z" fill="#F46F22"/>
</svg>
