<svg width="12" height="11" viewBox="0 0 12 11" fill="none" xmlns="http://www.w3.org/2000/svg">
<path fill-rule="evenodd" clip-rule="evenodd" d="M6 0C2.96243 0 0.5 2.46243 0.5 5.5C0.5 8.53757 2.96243 11 6 11C9.03757 11 11.5 8.53757 11.5 5.5C11.5 2.46243 9.03757 0 6 0ZM6 3C5.72386 3 5.5 3.22386 5.5 3.5C5.5 3.77614 5.72386 4 6 4H6.005C6.28114 4 6.505 3.77614 6.505 3.5C6.505 3.22386 6.28114 3 6.005 3H6ZM6.5 5.5C6.5 5.22386 6.27614 5 6 5C5.72386 5 5.5 5.22386 5.5 5.5V7.5C5.5 7.77614 5.72386 8 6 8C6.27614 8 6.5 7.77614 6.5 7.5V5.5Z" fill="white"/>
</svg>
