<svg width="54" height="44" viewBox="0 0 54 44" fill="none" xmlns="http://www.w3.org/2000/svg">
<path d="M42.9997 24.667V19.3337H53.6663V24.667H42.9997ZM46.1997 43.3337L37.6663 36.9337L40.8663 32.667L49.3997 39.067L46.1997 43.3337ZM40.8663 11.3337L37.6663 7.06699L46.1997 0.666992L49.3997 4.93366L40.8663 11.3337ZM8.33301 40.667V30.0003H0.333008V14.0003H16.333L29.6663 6.00033V38.0003L16.333 30.0003H13.6663V40.667H8.33301ZM32.333 30.9337V13.067C33.533 14.1337 34.5001 15.4341 35.2343 16.9683C35.9686 18.5025 36.3348 20.1799 36.333 22.0003C36.333 23.8225 35.9659 25.5008 35.2317 27.035C34.4975 28.5692 33.5312 29.8688 32.333 30.9337Z" fill="#F46F22"/>
</svg>
