<svg width="24" height="24" viewBox="0 0 24 24" fill="none" xmlns="http://www.w3.org/2000/svg">
<path d="M3.31035 6.85714C3.96507 6.85714 4.60509 6.65606 5.14948 6.27933C5.69386 5.90259 6.11815 5.36712 6.36871 4.74063C6.61926 4.11414 6.68481 3.42477 6.55708 2.75969C6.42935 2.09461 6.11407 1.4837 5.65111 1.00421C5.18815 0.524712 4.59831 0.198173 3.95616 0.0658806C3.31402 -0.0664116 2.64842 0.00148556 2.04353 0.260986C1.43865 0.520486 0.921641 0.959935 0.557895 1.52376C0.19415 2.08759 1.49151e-06 2.75047 1.49151e-06 3.42857C0.000987191 4.33757 0.350071 5.20905 0.970668 5.85181C1.59126 6.49457 2.43269 6.85612 3.31035 6.85714ZM3.31035 1.71429C3.63771 1.71429 3.95772 1.81483 4.22991 2.0032C4.5021 2.19156 4.71425 2.4593 4.83953 2.77254C4.9648 3.08579 4.99758 3.43047 4.93371 3.76301C4.86985 4.09555 4.71221 4.40101 4.48073 4.64076C4.24925 4.8805 3.95433 5.04377 3.63325 5.10992C3.31218 5.17606 2.97938 5.14212 2.67694 5.01237C2.3745 4.88262 2.11599 4.66289 1.93412 4.38098C1.75225 4.09907 1.65517 3.76763 1.65517 3.42857C1.65567 2.97407 1.83021 2.53833 2.14051 2.21695C2.45081 1.89557 2.87152 1.7148 3.31035 1.71429ZM12 1.4426e-06C11.3453 1.4426e-06 10.7053 0.201084 10.1609 0.57782C9.61649 0.954556 9.19219 1.49003 8.94164 2.11652C8.69109 2.743 8.62553 3.43238 8.75326 4.09745C8.88099 4.76253 9.19627 5.37344 9.65923 5.85294C10.1222 6.33243 10.712 6.65897 11.3542 6.79127C11.9963 6.92356 12.6619 6.85566 13.2668 6.59616C13.8717 6.33666 14.3887 5.89721 14.7525 5.33338C15.1162 4.76956 15.3103 4.10668 15.3103 3.42857C15.3094 2.51957 14.9603 1.64809 14.3397 1.00533C13.7191 0.362574 12.8777 0.00102235 12 1.4426e-06ZM12 5.14286C11.6726 5.14286 11.3526 5.04232 11.0804 4.85395C10.8082 4.66558 10.5961 4.39785 10.4708 4.0846C10.3455 3.77136 10.3128 3.42667 10.3766 3.09413C10.4405 2.76159 10.5981 2.45614 10.8296 2.21639C11.0611 1.97664 11.356 1.81337 11.6771 1.74723C11.9982 1.68108 12.331 1.71503 12.6334 1.84478C12.9359 1.97453 13.1944 2.19425 13.3762 2.47617C13.5581 2.75808 13.6552 3.08952 13.6552 3.42857C13.6547 3.88307 13.4801 4.31881 13.1698 4.64019C12.8595 4.96157 12.4388 5.14235 12 5.14286ZM20.6897 6.85714C21.3444 6.85714 21.9844 6.65606 22.5288 6.27933C23.0732 5.90259 23.4975 5.36712 23.748 4.74063C23.9986 4.11414 24.0641 3.42477 23.9364 2.75969C23.8087 2.09461 23.4934 1.4837 23.0304 1.00421C22.5675 0.524712 21.9776 0.198173 21.3355 0.0658806C20.6933 -0.0664116 20.0277 0.00148556 19.4228 0.260986C18.818 0.520486 18.3009 0.959935 17.9372 1.52376C17.5735 2.08759 17.3793 2.75047 17.3793 3.42857C17.3803 4.33757 17.7294 5.20905 18.35 5.85181C18.9706 6.49457 19.812 6.85612 20.6897 6.85714ZM20.6897 1.71429C21.017 1.71429 21.337 1.81483 21.6092 2.0032C21.8814 2.19156 22.0936 2.4593 22.2188 2.77254C22.3441 3.08579 22.3769 3.43047 22.313 3.76301C22.2492 4.09555 22.0915 4.40101 21.86 4.64076C21.6286 4.8805 21.3336 5.04377 21.0126 5.10992C20.6915 5.17606 20.3587 5.14212 20.0562 5.01237C19.7538 4.88262 19.4953 4.66289 19.3134 4.38098C19.1316 4.09907 19.0345 3.76763 19.0345 3.42857C19.035 2.97407 19.2095 2.53833 19.5198 2.21695C19.8301 1.89557 20.2508 1.7148 20.6897 1.71429ZM3.31035 8.57143C2.65562 8.57143 2.0156 8.77251 1.47122 9.14925C0.926834 9.52598 0.502539 10.0615 0.251986 10.6879C0.0014343 11.3144 -0.0641215 12.0038 0.0636088 12.6689C0.191339 13.334 0.506619 13.9449 0.969579 14.4244C1.43254 14.9039 2.02239 15.2304 2.66453 15.3627C3.30667 15.495 3.97227 15.4271 4.57716 15.1676C5.18205 14.9081 5.69905 14.4686 6.0628 13.9048C6.42654 13.341 6.62069 12.6781 6.62069 12C6.6197 11.091 6.27062 10.2195 5.65002 9.57676C5.02943 8.934 4.188 8.57245 3.31035 8.57143ZM3.31035 13.7143C2.98298 13.7143 2.66297 13.6137 2.39078 13.4254C2.11859 13.237 1.90644 12.9693 1.78117 12.656C1.65589 12.3428 1.62311 11.9981 1.68698 11.6656C1.75084 11.333 1.90848 11.0276 2.13996 10.7878C2.37144 10.5481 2.66637 10.3848 2.98744 10.3187C3.30851 10.2525 3.64131 10.2865 3.94375 10.4162C4.2462 10.546 4.5047 10.7657 4.68657 11.0476C4.86844 11.3295 4.96552 11.6609 4.96552 12C4.96503 12.4545 4.79048 12.8902 4.48019 13.2116C4.16989 13.533 3.74917 13.7138 3.31035 13.7143ZM12 8.57143C11.3453 8.57143 10.7053 8.77251 10.1609 9.14925C9.61649 9.52598 9.19219 10.0615 8.94164 10.6879C8.69109 11.3144 8.62553 12.0038 8.75326 12.6689C8.88099 13.334 9.19627 13.9449 9.65923 14.4244C10.1222 14.9039 10.712 15.2304 11.3542 15.3627C11.9963 15.495 12.6619 15.4271 13.2668 15.1676C13.8717 14.9081 14.3887 14.4686 14.7525 13.9048C15.1162 13.341 15.3103 12.6781 15.3103 12C15.3094 11.091 14.9603 10.2195 14.3397 9.57676C13.7191 8.934 12.8777 8.57245 12 8.57143ZM12 13.7143C11.6726 13.7143 11.3526 13.6137 11.0804 13.4254C10.8082 13.237 10.5961 12.9693 10.4708 12.656C10.3455 12.3428 10.3128 11.9981 10.3766 11.6656C10.4405 11.333 10.5981 11.0276 10.8296 10.7878C11.0611 10.5481 11.356 10.3848 11.6771 10.3187C11.9982 10.2525 12.331 10.2865 12.6334 10.4162C12.9359 10.546 13.1944 10.7657 13.3762 11.0476C13.5581 11.3295 13.6552 11.6609 13.6552 12C13.6547 12.4545 13.4801 12.8902 13.1698 13.2116C12.8595 13.533 12.4388 13.7138 12 13.7143ZM20.6897 8.57143C20.0349 8.57143 19.3949 8.77251 18.8505 9.14925C18.3061 9.52598 17.8818 10.0615 17.6313 10.6879C17.3807 11.3144 17.3152 12.0038 17.4429 12.6689C17.5706 13.334 17.8859 13.9449 18.3489 14.4244C18.8118 14.9039 19.4017 15.2304 20.0438 15.3627C20.686 15.495 21.3516 15.4271 21.9565 15.1676C22.5614 14.9081 23.0784 14.4686 23.4421 13.9048C23.8058 13.341 24 12.6781 24 12C23.999 11.091 23.6499 10.2195 23.0293 9.57676C22.4087 8.934 21.5673 8.57245 20.6897 8.57143ZM20.6897 13.7143C20.3623 13.7143 20.0423 13.6137 19.7701 13.4254C19.4979 13.237 19.2858 12.9693 19.1605 12.656C19.0352 12.3428 19.0024 11.9981 19.0663 11.6656C19.1302 11.333 19.2878 11.0276 19.5193 10.7878C19.7508 10.5481 20.0457 10.3848 20.3667 10.3187C20.6878 10.2525 21.0206 10.2865 21.3231 10.4162C21.6255 10.546 21.884 10.7657 22.0659 11.0476C22.2478 11.3295 22.3448 11.6609 22.3448 12C22.3443 12.4545 22.1698 12.8902 21.8595 13.2116C21.5492 13.533 21.1285 13.7138 20.6897 13.7143ZM20.6897 17.1429C20.0349 17.1429 19.3949 17.3439 18.8505 17.7207C18.3061 18.0974 17.8818 18.6329 17.6313 19.2594C17.3807 19.8859 17.3152 20.5752 17.4429 21.2403C17.5706 21.9054 17.8859 22.5163 18.3489 22.9958C18.8118 23.4753 19.4017 23.8018 20.0438 23.9341C20.686 24.0664 21.3516 23.9985 21.9565 23.739C22.5614 23.4795 23.0784 23.0401 23.4421 22.4762C23.8058 21.9124 24 21.2495 24 20.5714C23.999 19.6624 23.6499 18.791 23.0293 18.1482C22.4087 17.5054 21.5673 17.1439 20.6897 17.1429ZM20.6897 22.2857C20.3623 22.2857 20.0423 22.1852 19.7701 21.9968C19.4979 21.8084 19.2858 21.5407 19.1605 21.2275C19.0352 20.9142 19.0024 20.5695 19.0663 20.237C19.1302 19.9044 19.2878 19.599 19.5193 19.3592C19.7508 19.1195 20.0457 18.9562 20.3667 18.8901C20.6878 18.8239 21.0206 18.8579 21.3231 18.9876C21.6255 19.1174 21.884 19.3371 22.0659 19.619C22.2478 19.9009 22.3448 20.2324 22.3448 20.5714C22.3443 21.0259 22.1698 21.4617 21.8595 21.783C21.5492 22.1044 21.1285 22.2852 20.6897 22.2857ZM1.65517 20.1429H3.31035V21.8571H1.65517V20.1429ZM6.62069 20.1429H8.27586V21.8571H6.62069V20.1429ZM11.5862 20.1429H13.2414V21.8571H11.5862V20.1429Z" fill="#E75F33"/>
</svg>
