<svg width="35" height="35" viewBox="0 0 35 35" fill="none" xmlns="http://www.w3.org/2000/svg">
<path d="M20.7043 18.9219L18.5682 3.28125H18.4086C14.6794 3.28759 11.1044 4.77001 8.465 7.40447C5.82562 10.0389 4.33653 13.6112 4.32324 17.3403V17.5L20.7043 18.9219Z" fill="#ED6C47"/>
<path d="M18.728 3.28125H18.5684V17.5L25.6898 20.3438L32.8123 17.5V17.3403C32.799 13.6114 31.31 10.0393 28.6709 7.40485C26.0317 4.77042 22.457 3.28787 18.728 3.28125Z" fill="#FF8F6B"/>
<path d="M32.8121 17.5V17.6564C32.7983 21.3861 31.3088 24.9586 28.6692 27.5935C26.0295 30.2285 22.4543 31.7116 18.7246 31.7188H18.4107C14.6812 31.711 11.1064 30.2277 8.46684 27.5929C5.82733 24.9581 4.33768 21.3859 4.32324 17.6564V17.5H32.8121Z" fill="#D35230"/>
<path opacity="0.1" d="M19.2803 10.2692V25.4406C19.2783 25.6987 19.2003 25.9506 19.0559 26.1646C18.9116 26.3786 18.7073 26.5452 18.4687 26.6437C18.3129 26.7094 18.1456 26.7432 17.9765 26.7433H7.68544C7.48578 26.5143 7.29567 26.2771 7.1156 26.0323C5.30138 23.6173 4.32136 20.678 4.32325 17.6575V17.3447C4.31981 14.6201 5.11741 11.9546 6.61685 9.67969C6.77234 9.43534 6.93876 9.19812 7.1156 8.96875H17.9765C18.321 8.97103 18.6508 9.10868 18.8947 9.35197C19.1387 9.59527 19.2771 9.92472 19.2803 10.2692Z" fill="black"/>
<path opacity="0.2" d="M18.5682 10.9812V26.1527C18.5682 26.321 18.5344 26.4876 18.4687 26.6427C18.37 26.881 18.2033 27.0851 17.9893 27.2292C17.7753 27.3734 17.5236 27.4512 17.2656 27.4531H8.33403C8.10872 27.2242 7.89252 26.9872 7.68544 26.7422C7.48578 26.5132 7.29567 26.276 7.1156 26.0312C5.30138 23.6162 4.32135 20.6769 4.32325 17.6564V17.3436C4.32003 14.6194 5.11761 11.9543 6.61685 9.67969H17.2645C17.6092 9.68197 17.9391 9.81977 18.1831 10.0633C18.427 10.3068 18.5654 10.6366 18.5682 10.9812Z" fill="black"/>
<path opacity="0.2" d="M18.5682 10.9812V24.7308C18.5651 25.0753 18.4266 25.4047 18.1827 25.648C17.9388 25.8913 17.609 26.029 17.2645 26.0312H7.1156C5.30138 23.6162 4.32135 20.6769 4.32325 17.6564V17.3436C4.32003 14.6194 5.11761 11.9543 6.61685 9.67969H17.2645C17.6092 9.68197 17.9391 9.81977 18.1831 10.0633C18.427 10.3068 18.5654 10.6366 18.5682 10.9812Z" fill="black"/>
<path opacity="0.2" d="M17.8562 10.9812V24.7308C17.8531 25.0753 17.7146 25.4047 17.4707 25.648C17.2268 25.8913 16.897 26.029 16.5525 26.0312H7.1156C5.30138 23.6162 4.32135 20.6769 4.32325 17.6564V17.3436C4.32003 14.6194 5.11761 11.9543 6.61685 9.67969H16.5525C16.8972 9.68197 17.2271 9.81977 17.4711 10.0633C17.715 10.3068 17.8534 10.6366 17.8562 10.9812Z" fill="black"/>
<path d="M3.49344 9.67969H16.5506C16.8965 9.6794 17.2283 9.81644 17.4732 10.0607C17.7181 10.305 17.856 10.6365 17.8566 10.9823V24.0177C17.856 24.3635 17.7181 24.695 17.4732 24.9393C17.2283 25.1836 16.8965 25.3206 16.5506 25.3203H3.49344C3.32213 25.3206 3.15245 25.2871 2.99409 25.2218C2.83574 25.1565 2.6918 25.0606 2.57052 24.9396C2.44924 24.8186 2.35299 24.6749 2.28726 24.5168C2.22154 24.3586 2.18764 24.189 2.1875 24.0177V10.9823C2.18764 10.811 2.22154 10.6414 2.28726 10.4833C2.35299 10.3251 2.44924 10.1814 2.57052 10.0604C2.6918 9.93941 2.83574 9.84352 2.99409 9.7782C3.15245 9.71288 3.32213 9.6794 3.49344 9.67969Z" fill="url(#paint0_linear_293_10647)"/>
<path d="M10.1643 13.1556C11.0143 13.0984 11.857 13.3449 12.5421 13.8512C12.8238 14.102 13.0447 14.4136 13.188 14.7625C13.3313 15.1114 13.3932 15.4884 13.369 15.8648C13.3785 16.395 13.237 16.917 12.961 17.3698C12.6817 17.8153 12.2795 18.1705 11.8027 18.3924C11.258 18.645 10.6629 18.77 10.0626 18.7578H8.40773V21.8203H6.7168V13.1556H10.1643ZM8.40664 17.4343H9.86242C10.324 17.4676 10.7818 17.3311 11.1498 17.0504C11.3002 16.9069 11.4174 16.7321 11.493 16.5384C11.5686 16.3447 11.6007 16.1368 11.5873 15.9293C11.5873 14.9748 11.0313 14.4972 9.9193 14.4965H8.40664V17.4343Z" fill="white"/>
<defs>
<linearGradient id="paint0_linear_293_10647" x1="4.91531" y1="8.65594" x2="15.1288" y2="26.3441" gradientUnits="userSpaceOnUse">
<stop stop-color="#CA4C28"/>
<stop offset="0.5" stop-color="#C5401E"/>
<stop offset="1" stop-color="#B62F14"/>
</linearGradient>
</defs>
</svg>
